<svg width="20" height="18" viewBox="0 0 20 18" fill="none" xmlns="http://www.w3.org/2000/svg">
<path d="M20 2.79908C19.2639 3.12525 18.474 3.34646 17.6441 3.44522C18.4915 2.9378 19.1401 2.13297 19.4475 1.17689C18.6527 1.64679 17.7754 1.988 16.8405 2.17297C16.0919 1.37437 15.0271 0.876953 13.8461 0.876953C11.5803 0.876953 9.7431 2.71411 9.7431 4.97868C9.7431 5.29986 9.77935 5.61355 9.84935 5.91352C6.44 5.74228 3.41683 4.10885 1.39346 1.62679C1.03977 2.23169 0.838562 2.93653 0.838562 3.68891C0.838562 5.11241 1.56343 6.36842 2.66324 7.10326C1.99085 7.08078 1.35846 6.89581 0.804837 6.58836V6.6396C0.804837 8.62672 2.21957 10.2852 4.09546 10.6626C3.75176 10.7551 3.38935 10.8063 3.01441 10.8063C2.74948 10.8063 2.49327 10.7801 2.24206 10.7301C2.76444 12.361 4.27918 13.547 6.07386 13.5796C4.67036 14.6794 2.90069 15.333 0.978562 15.333C0.647386 15.333 0.321176 15.313 0 15.2768C1.81591 16.4428 3.97176 17.1227 6.28882 17.1227C13.8361 17.1227 17.9616 10.8713 17.9616 5.44986L17.9479 4.91872C18.754 4.34378 19.4513 3.62143 20 2.79908Z" fill="#676C7A"/>
</svg>
