<svg aria-hidden="true" style="position: absolute; width: 0; height: 0; overflow: hidden;" version="1.1" xmlns="http://www.w3.org/2000/svg" xmlns:xlink="http://www.w3.org/1999/xlink">
<defs>
<symbol id="icon-hero_arrow_r" viewBox="0 0 58 32">
<path fill="#fff" style="fill: var(--color1, #fff)" d="M47.46 13.504l-9.094-8.068 3.003-3.836 16.232 14.4-16.232 14.4-3.003-3.836 9.095-8.068h-47.46v-4.993h47.46z"></path>
</symbol>
<symbol id="icon-hero_arrow_b" viewBox="0 0 32 32">
<path fill="#111a45" style="fill: var(--color2, #111a45)" d="M18.145 1.058l-0.239 22.756 10.555-10.335 2.584 2.639-15.078 14.765-14.765-15.079 2.639-2.584 10.336 10.555 0.239-22.756 3.73 0.039z"></path>
</symbol>
<symbol id="icon-header_language_arrow" viewBox="0 0 64 32">
<path fill="#111a45" style="fill: var(--color2, #111a45)" d="M31.993 31.467l26.133-29.867h-52.267l26.133 29.867z"></path>
</symbol>
<symbol id="icon-header_language" viewBox="0 0 32 32">
<path fill="#111a45" style="fill: var(--color2, #111a45)" d="M31.11 21.264c0.576-1.649 0.891-3.42 0.891-5.264s-0.314-3.614-0.891-5.264c-0.014-0.050-0.031-0.098-0.051-0.144-2.222-6.169-8.133-10.592-15.058-10.592s-12.836 4.423-15.058 10.592c-0.020 0.047-0.037 0.095-0.051 0.144-0.576 1.649-0.891 3.42-0.891 5.264s0.314 3.614 0.891 5.264c0.014 0.050 0.031 0.098 0.051 0.144 2.222 6.169 8.133 10.592 15.058 10.592s12.836-4.423 15.058-10.592c0.020-0.046 0.037-0.095 0.051-0.144zM16 29.706c-0.609 0-1.592-1.103-2.413-3.566-0.396-1.189-0.714-2.556-0.945-4.042h6.715c-0.231 1.487-0.548 2.853-0.945 4.042-0.821 2.464-1.804 3.566-2.413 3.566zM12.365 19.804c-0.11-1.223-0.168-2.499-0.168-3.804s0.058-2.582 0.168-3.804h7.272c0.11 1.223 0.168 2.499 0.168 3.804s-0.058 2.582-0.168 3.804h-7.272zM2.294 16c0-1.319 0.188-2.596 0.538-3.804h7.232c-0.107 1.248-0.162 2.527-0.162 3.804s0.054 2.556 0.162 3.804h-7.232c-0.35-1.208-0.538-2.485-0.538-3.804zM16 2.294c0.609 0 1.592 1.103 2.413 3.566 0.396 1.189 0.714 2.556 0.945 4.042h-6.715c0.231-1.487 0.548-2.853 0.945-4.042 0.821-2.464 1.804-3.566 2.413-3.566zM21.937 12.196h7.232c0.35 1.208 0.538 2.485 0.538 3.804s-0.188 2.596-0.538 3.804h-7.232c0.107-1.248 0.162-2.527 0.162-3.804s-0.054-2.556-0.162-3.804zM28.273 9.902h-6.599c-0.408-2.813-1.108-5.337-2.090-7.132 3.807 1.032 6.96 3.667 8.689 7.132zM12.417 2.77c-0.982 1.795-1.682 4.319-2.090 7.132h-6.599c1.729-3.465 4.882-6.1 8.689-7.132zM3.728 22.098h6.599c0.408 2.813 1.108 5.337 2.090 7.132-3.807-1.032-6.96-3.667-8.689-7.132zM19.584 29.23c0.982-1.795 1.682-4.319 2.090-7.132h6.599c-1.729 3.466-4.882 6.1-8.689 7.132z"></path>
</symbol>
<symbol id="icon-footer_twiter" viewBox="0 0 36 32">
<path fill="#676c7a" style="fill: var(--color3, #676c7a)" d="M35.556 4.976c-1.309 0.58-2.713 0.973-4.188 1.149 1.506-0.902 2.66-2.333 3.206-4.033-1.413 0.835-2.973 1.442-4.635 1.771-1.331-1.42-3.224-2.304-5.323-2.304-4.028 0-7.294 3.266-7.294 7.292 0 0.571 0.064 1.129 0.189 1.662-6.061-0.304-11.436-3.208-15.033-7.621-0.629 1.075-0.986 2.328-0.986 3.666 0 2.531 1.289 4.764 3.244 6.070-1.195-0.040-2.32-0.369-3.304-0.915v0.091c0 3.533 2.515 6.481 5.85 7.152-0.611 0.164-1.255 0.255-1.922 0.255-0.471 0-0.926-0.047-1.373-0.135 0.929 2.899 3.622 5.008 6.812 5.066-2.495 1.955-5.641 3.117-9.058 3.117-0.589 0-1.169-0.036-1.74-0.1 3.228 2.073 7.061 3.282 11.18 3.282 13.417 0 20.752-11.114 20.752-20.752l-0.024-0.944c1.433-1.022 2.673-2.306 3.648-3.768z"></path>
</symbol>
<symbol id="icon-footer_linkedin" viewBox="0 0 32 32">
<path fill="#676c7a" style="fill: var(--color3, #676c7a)" d="M8.144 8.944h-6.187v18.581h6.187v-18.581z"></path>
<path fill="#676c7a" style="fill: var(--color3, #676c7a)" d="M28.449 10.642c-1.3-1.419-3.019-2.128-5.156-2.128-0.788 0-1.503 0.097-2.147 0.291s-1.187 0.466-1.631 0.816c-0.444 0.35-0.797 0.675-1.059 0.975-0.249 0.285-0.493 0.617-0.731 0.992v-2.642h-6.169l0.019 0.9c0.013 0.6 0.019 2.45 0.019 5.55s-0.012 7.144-0.038 12.131h6.169v-10.369c0-0.637 0.068-1.143 0.206-1.519 0.263-0.638 0.659-1.172 1.191-1.603s1.191-0.647 1.978-0.647c1.075 0 1.866 0.372 2.372 1.116s0.759 1.772 0.759 3.084v9.937h6.169v-10.649c-0-2.738-0.65-4.816-1.95-6.234z"></path>
<path fill="#676c7a" style="fill: var(--color3, #676c7a)" d="M5.087 0c-1.037 0-1.878 0.303-2.522 0.909s-0.966 1.372-0.966 2.297c0 0.912 0.312 1.675 0.938 2.287s1.45 0.919 2.475 0.919h0.037c1.050 0 1.897-0.306 2.541-0.919s0.959-1.375 0.947-2.287c-0.012-0.925-0.331-1.691-0.956-2.297s-1.456-0.909-2.494-0.909z"></path>
</symbol>
<symbol id="icon-footer_instagram" viewBox="0 0 32 32">
<path fill="#676c7a" style="fill: var(--color3, #676c7a)" d="M23.169 0h-14.338c-4.869 0-8.831 3.962-8.831 8.831v14.338c0 4.869 3.961 8.831 8.831 8.831h14.338c4.87 0 8.831-3.962 8.831-8.831v-14.338c0-4.869-3.961-8.831-8.831-8.831zM29.161 23.169c0 3.304-2.688 5.992-5.992 5.992h-14.338c-3.304 0-5.991-2.688-5.991-5.992v-14.338c0-3.304 2.688-5.992 5.991-5.992h14.338c3.304 0 5.992 2.688 5.992 5.992v14.338h0z"></path>
<path fill="#676c7a" style="fill: var(--color3, #676c7a)" d="M16 7.755c-4.547 0-8.245 3.699-8.245 8.245s3.699 8.245 8.245 8.245c4.547 0 8.246-3.699 8.246-8.245s-3.699-8.245-8.246-8.245zM16 21.406c-2.981 0-5.406-2.425-5.406-5.406s2.425-5.406 5.406-5.406c2.981 0 5.406 2.425 5.406 5.406s-2.425 5.406-5.406 5.406z"></path>
<path fill="#676c7a" style="fill: var(--color3, #676c7a)" d="M24.592 5.347c-0.547 0-1.084 0.221-1.471 0.609-0.388 0.386-0.611 0.924-0.611 1.473 0 0.547 0.223 1.085 0.611 1.473 0.386 0.386 0.924 0.61 1.471 0.61 0.549 0 1.084-0.223 1.472-0.61 0.388-0.388 0.609-0.926 0.609-1.473 0-0.549-0.221-1.086-0.609-1.473-0.386-0.388-0.924-0.609-1.472-0.609z"></path>
</symbol>
<symbol id="icon-footer_fackeboock" viewBox="0 0 19 32">
<path fill="#676c7a" style="fill: var(--color3, #676c7a)" d="M17.598 0.007l-4.15-0.007c-4.662 0-7.675 3.091-7.675 7.875v3.631h-4.172c-0.361 0-0.652 0.292-0.652 0.653v5.261c0 0.36 0.292 0.652 0.652 0.652h4.172v13.275c0 0.36 0.292 0.652 0.652 0.652h5.444c0.361 0 0.652-0.292 0.652-0.652v-13.275h4.878c0.36 0 0.652-0.292 0.652-0.652l0.002-5.261c0-0.173-0.069-0.339-0.191-0.461s-0.289-0.191-0.462-0.191h-4.88v-3.078c0-1.479 0.353-2.23 2.28-2.23l2.795-0.001c0.36 0 0.652-0.292 0.652-0.652v-4.885c0-0.36-0.292-0.652-0.652-0.652z"></path>
</symbol>
<symbol id="icon-close" viewBox="0 0 32 32">
<path d="M32 1.454l-1.454-1.454-14.546 14.546-14.546-14.546-1.454 1.454 14.546 14.546-14.546 14.546 1.454 1.454 14.546-14.546 14.546 14.546 1.454-1.454-14.546-14.546 14.546-14.546z"></path>
</symbol>
<symbol id="icon-hero_technology_line_r" viewBox="0 0 54 32">
<path fill="none" stroke="#e57c57" style="stroke: var(--color4, #e57c57)" stroke-linejoin="miter" stroke-linecap="round" stroke-miterlimit="4" stroke-width="0.4939" d="M49.797 28.202l3.449 3.449"></path>
<path fill="none" stroke="#e49128" style="stroke: var(--color5, #e49128)" stroke-linejoin="miter" stroke-linecap="round" stroke-miterlimit="4" stroke-width="0.4939" d="M49.797 21.238l3.449 3.449"></path>
<path fill="none" stroke="#e57c57" style="stroke: var(--color4, #e57c57)" stroke-linejoin="miter" stroke-linecap="round" stroke-miterlimit="4" stroke-width="0.4939" d="M49.797 14.275l3.449 3.449"></path>
<path fill="none" stroke="#e57c57" style="stroke: var(--color4, #e57c57)" stroke-linejoin="miter" stroke-linecap="round" stroke-miterlimit="4" stroke-width="0.4939" d="M49.797 7.311l3.449 3.449"></path>
<path fill="none" stroke="#e7648b" style="stroke: var(--color6, #e7648b)" stroke-linejoin="miter" stroke-linecap="round" stroke-miterlimit="4" stroke-width="0.4939" d="M49.797 0.348l3.449 3.449"></path>
<path fill="none" stroke="#e7648b" style="stroke: var(--color6, #e7648b)" stroke-linejoin="miter" stroke-linecap="round" stroke-miterlimit="4" stroke-width="0.4939" d="M41.567 28.202l3.449 3.449"></path>
<path fill="none" stroke="#e57c57" style="stroke: var(--color4, #e57c57)" stroke-linejoin="miter" stroke-linecap="round" stroke-miterlimit="4" stroke-width="0.4939" d="M41.567 21.238l3.449 3.449"></path>
<path fill="none" stroke="#e57c57" style="stroke: var(--color4, #e57c57)" stroke-linejoin="miter" stroke-linecap="round" stroke-miterlimit="4" stroke-width="0.4939" d="M41.567 14.275l3.449 3.449"></path>
<path fill="none" stroke="#e57c57" style="stroke: var(--color4, #e57c57)" stroke-linejoin="miter" stroke-linecap="round" stroke-miterlimit="4" stroke-width="0.4939" d="M41.567 7.311l3.449 3.449"></path>
<path fill="none" stroke="#e57c57" style="stroke: var(--color4, #e57c57)" stroke-linejoin="miter" stroke-linecap="round" stroke-miterlimit="4" stroke-width="0.4939" d="M41.567 0.348l3.449 3.449"></path>
<path fill="none" stroke="#e49128" style="stroke: var(--color5, #e49128)" stroke-linejoin="miter" stroke-linecap="round" stroke-miterlimit="4" stroke-width="0.4939" d="M33.337 28.202l3.449 3.449"></path>
<path fill="none" stroke="#e7648b" style="stroke: var(--color6, #e7648b)" stroke-linejoin="miter" stroke-linecap="round" stroke-miterlimit="4" stroke-width="0.4939" d="M33.337 21.238l3.449 3.449"></path>
<path fill="none" stroke="#e57c57" style="stroke: var(--color4, #e57c57)" stroke-linejoin="miter" stroke-linecap="round" stroke-miterlimit="4" stroke-width="0.4939" d="M33.337 14.275l3.449 3.449"></path>
<path fill="none" stroke="#e49128" style="stroke: var(--color5, #e49128)" stroke-linejoin="miter" stroke-linecap="round" stroke-miterlimit="4" stroke-width="0.4939" d="M33.337 7.311l3.449 3.449"></path>
<path fill="none" stroke="#e57c57" style="stroke: var(--color4, #e57c57)" stroke-linejoin="miter" stroke-linecap="round" stroke-miterlimit="4" stroke-width="0.4939" d="M33.337 0.348l3.449 3.449"></path>
<path fill="none" stroke="#e57c57" style="stroke: var(--color4, #e57c57)" stroke-linejoin="miter" stroke-linecap="round" stroke-miterlimit="4" stroke-width="0.4939" d="M25.108 28.202l3.449 3.449"></path>
<path fill="none" stroke="#e57c57" style="stroke: var(--color4, #e57c57)" stroke-linejoin="miter" stroke-linecap="round" stroke-miterlimit="4" stroke-width="0.4939" d="M25.108 21.238l3.449 3.449"></path>
<path fill="none" stroke="#e7648b" style="stroke: var(--color6, #e7648b)" stroke-linejoin="miter" stroke-linecap="round" stroke-miterlimit="4" stroke-width="0.4939" d="M25.108 14.275l3.449 3.449"></path>
<path fill="none" stroke="#e57c57" style="stroke: var(--color4, #e57c57)" stroke-linejoin="miter" stroke-linecap="round" stroke-miterlimit="4" stroke-width="0.4939" d="M25.108 7.311l3.449 3.449"></path>
<path fill="none" stroke="#e57c57" style="stroke: var(--color4, #e57c57)" stroke-linejoin="miter" stroke-linecap="round" stroke-miterlimit="4" stroke-width="0.4939" d="M25.108 0.348l3.449 3.449"></path>
<path fill="none" stroke="#e57c57" style="stroke: var(--color4, #e57c57)" stroke-linejoin="miter" stroke-linecap="round" stroke-miterlimit="4" stroke-width="0.4939" d="M16.878 28.202l3.449 3.449"></path>
<path fill="none" stroke="#e57c57" style="stroke: var(--color4, #e57c57)" stroke-linejoin="miter" stroke-linecap="round" stroke-miterlimit="4" stroke-width="0.4939" d="M16.878 21.238l3.449 3.449"></path>
<path fill="none" stroke="#e7648b" style="stroke: var(--color6, #e7648b)" stroke-linejoin="miter" stroke-linecap="round" stroke-miterlimit="4" stroke-width="0.4939" d="M16.878 14.275l3.449 3.449"></path>
<path fill="none" stroke="#e57c57" style="stroke: var(--color4, #e57c57)" stroke-linejoin="miter" stroke-linecap="round" stroke-miterlimit="4" stroke-width="0.4939" d="M16.878 7.311l3.449 3.449"></path>
<path fill="none" stroke="#e57c57" style="stroke: var(--color4, #e57c57)" stroke-linejoin="miter" stroke-linecap="round" stroke-miterlimit="4" stroke-width="0.4939" d="M16.878 0.348l3.449 3.449"></path>
<path fill="none" stroke="#e7648b" style="stroke: var(--color6, #e7648b)" stroke-linejoin="miter" stroke-linecap="round" stroke-miterlimit="4" stroke-width="0.4939" d="M8.649 28.202l3.449 3.449"></path>
<path fill="none" stroke="#e49128" style="stroke: var(--color5, #e49128)" stroke-linejoin="miter" stroke-linecap="round" stroke-miterlimit="4" stroke-width="0.4939" d="M8.649 21.238l3.449 3.449"></path>
<path fill="none" stroke="#e57c57" style="stroke: var(--color4, #e57c57)" stroke-linejoin="miter" stroke-linecap="round" stroke-miterlimit="4" stroke-width="0.4939" d="M8.649 14.275l3.449 3.449"></path>
<path fill="none" stroke="#e57c57" style="stroke: var(--color4, #e57c57)" stroke-linejoin="miter" stroke-linecap="round" stroke-miterlimit="4" stroke-width="0.4939" d="M8.649 7.311l3.449 3.449"></path>
<path fill="none" stroke="#e49128" style="stroke: var(--color5, #e49128)" stroke-linejoin="miter" stroke-linecap="round" stroke-miterlimit="4" stroke-width="0.4939" d="M8.649 0.348l3.449 3.449"></path>
<path fill="none" stroke="#e57c57" style="stroke: var(--color4, #e57c57)" stroke-linejoin="miter" stroke-linecap="round" stroke-miterlimit="4" stroke-width="0.4939" d="M0.419 28.202l3.449 3.449"></path>
<path fill="none" stroke="#e57c57" style="stroke: var(--color4, #e57c57)" stroke-linejoin="miter" stroke-linecap="round" stroke-miterlimit="4" stroke-width="0.4939" d="M0.419 21.238l3.449 3.449"></path>
<path fill="none" stroke="#e57c57" style="stroke: var(--color4, #e57c57)" stroke-linejoin="miter" stroke-linecap="round" stroke-miterlimit="4" stroke-width="0.4939" d="M0.419 14.275l3.449 3.449"></path>
<path fill="none" stroke="#e49128" style="stroke: var(--color5, #e49128)" stroke-linejoin="miter" stroke-linecap="round" stroke-miterlimit="4" stroke-width="0.4939" d="M0.419 7.311l3.449 3.449"></path>
<path fill="none" stroke="#e7648b" style="stroke: var(--color6, #e7648b)" stroke-linejoin="miter" stroke-linecap="round" stroke-miterlimit="4" stroke-width="0.4939" d="M0.419 0.348l3.449 3.449"></path>
</symbol>
<symbol id="icon-hero_technology_line_l" viewBox="0 0 54 32">
<path fill="none" stroke="#e57c57" style="stroke: var(--color4, #e57c57)" stroke-linejoin="miter" stroke-linecap="round" stroke-miterlimit="4" stroke-width="0.6311" d="M3.785 28.213l-3.34 3.34"></path>
<path fill="none" stroke="#e49128" style="stroke: var(--color5, #e49128)" stroke-linejoin="miter" stroke-linecap="round" stroke-miterlimit="4" stroke-width="0.6311" d="M3.785 21.271l-3.34 3.34"></path>
<path fill="none" stroke="#e57c57" style="stroke: var(--color4, #e57c57)" stroke-linejoin="miter" stroke-linecap="round" stroke-miterlimit="4" stroke-width="0.6311" d="M3.785 14.329l-3.34 3.34"></path>
<path fill="none" stroke="#e57c57" style="stroke: var(--color4, #e57c57)" stroke-linejoin="miter" stroke-linecap="round" stroke-miterlimit="4" stroke-width="0.6311" d="M3.785 7.387l-3.34 3.34"></path>
<path fill="none" stroke="#e7648b" style="stroke: var(--color6, #e7648b)" stroke-linejoin="miter" stroke-linecap="round" stroke-miterlimit="4" stroke-width="0.6311" d="M3.785 0.444l-3.34 3.34"></path>
<path fill="none" stroke="#e7648b" style="stroke: var(--color6, #e7648b)" stroke-linejoin="miter" stroke-linecap="round" stroke-miterlimit="4" stroke-width="0.6311" d="M11.989 28.213l-3.34 3.34"></path>
<path fill="none" stroke="#e57c57" style="stroke: var(--color4, #e57c57)" stroke-linejoin="miter" stroke-linecap="round" stroke-miterlimit="4" stroke-width="0.6311" d="M11.989 21.271l-3.34 3.34"></path>
<path fill="none" stroke="#e57c57" style="stroke: var(--color4, #e57c57)" stroke-linejoin="miter" stroke-linecap="round" stroke-miterlimit="4" stroke-width="0.6311" d="M11.989 14.329l-3.34 3.34"></path>
<path fill="none" stroke="#e57c57" style="stroke: var(--color4, #e57c57)" stroke-linejoin="miter" stroke-linecap="round" stroke-miterlimit="4" stroke-width="0.6311" d="M11.989 7.387l-3.34 3.34"></path>
<path fill="none" stroke="#e57c57" style="stroke: var(--color4, #e57c57)" stroke-linejoin="miter" stroke-linecap="round" stroke-miterlimit="4" stroke-width="0.6311" d="M11.989 0.444l-3.34 3.34"></path>
<path fill="none" stroke="#e49128" style="stroke: var(--color5, #e49128)" stroke-linejoin="miter" stroke-linecap="round" stroke-miterlimit="4" stroke-width="0.6311" d="M20.194 28.213l-3.34 3.34"></path>
<path fill="none" stroke="#e7648b" style="stroke: var(--color6, #e7648b)" stroke-linejoin="miter" stroke-linecap="round" stroke-miterlimit="4" stroke-width="0.6311" d="M20.194 21.271l-3.34 3.34"></path>
<path fill="none" stroke="#e57c57" style="stroke: var(--color4, #e57c57)" stroke-linejoin="miter" stroke-linecap="round" stroke-miterlimit="4" stroke-width="0.6311" d="M20.194 14.329l-3.34 3.34"></path>
<path fill="none" stroke="#e49128" style="stroke: var(--color5, #e49128)" stroke-linejoin="miter" stroke-linecap="round" stroke-miterlimit="4" stroke-width="0.6311" d="M20.194 7.387l-3.34 3.34"></path>
<path fill="none" stroke="#e57c57" style="stroke: var(--color4, #e57c57)" stroke-linejoin="miter" stroke-linecap="round" stroke-miterlimit="4" stroke-width="0.6311" d="M20.194 0.444l-3.34 3.34"></path>
<path fill="none" stroke="#e57c57" style="stroke: var(--color4, #e57c57)" stroke-linejoin="miter" stroke-linecap="round" stroke-miterlimit="4" stroke-width="0.6311" d="M28.398 28.213l-3.34 3.34"></path>
<path fill="none" stroke="#e57c57" style="stroke: var(--color4, #e57c57)" stroke-linejoin="miter" stroke-linecap="round" stroke-miterlimit="4" stroke-width="0.6311" d="M28.398 21.271l-3.34 3.34"></path>
<path fill="none" stroke="#e7648b" style="stroke: var(--color6, #e7648b)" stroke-linejoin="miter" stroke-linecap="round" stroke-miterlimit="4" stroke-width="0.6311" d="M28.398 14.329l-3.34 3.34"></path>
<path fill="none" stroke="#e57c57" style="stroke: var(--color4, #e57c57)" stroke-linejoin="miter" stroke-linecap="round" stroke-miterlimit="4" stroke-width="0.6311" d="M28.398 7.387l-3.34 3.34"></path>
<path fill="none" stroke="#e57c57" style="stroke: var(--color4, #e57c57)" stroke-linejoin="miter" stroke-linecap="round" stroke-miterlimit="4" stroke-width="0.6311" d="M28.398 0.444l-3.34 3.34"></path>
<path fill="none" stroke="#e57c57" style="stroke: var(--color4, #e57c57)" stroke-linejoin="miter" stroke-linecap="round" stroke-miterlimit="4" stroke-width="0.6311" d="M36.603 28.213l-3.34 3.34"></path>
<path fill="none" stroke="#e57c57" style="stroke: var(--color4, #e57c57)" stroke-linejoin="miter" stroke-linecap="round" stroke-miterlimit="4" stroke-width="0.6311" d="M36.603 21.271l-3.34 3.34"></path>
<path fill="none" stroke="#e7648b" style="stroke: var(--color6, #e7648b)" stroke-linejoin="miter" stroke-linecap="round" stroke-miterlimit="4" stroke-width="0.6311" d="M36.603 14.329l-3.34 3.34"></path>
<path fill="none" stroke="#e57c57" style="stroke: var(--color4, #e57c57)" stroke-linejoin="miter" stroke-linecap="round" stroke-miterlimit="4" stroke-width="0.6311" d="M36.603 7.387l-3.34 3.34"></path>
<path fill="none" stroke="#e57c57" style="stroke: var(--color4, #e57c57)" stroke-linejoin="miter" stroke-linecap="round" stroke-miterlimit="4" stroke-width="0.6311" d="M36.603 0.444l-3.34 3.34"></path>
<path fill="none" stroke="#e7648b" style="stroke: var(--color6, #e7648b)" stroke-linejoin="miter" stroke-linecap="round" stroke-miterlimit="4" stroke-width="0.6311" d="M44.807 28.213l-3.34 3.34"></path>
<path fill="none" stroke="#e49128" style="stroke: var(--color5, #e49128)" stroke-linejoin="miter" stroke-linecap="round" stroke-miterlimit="4" stroke-width="0.6311" d="M44.807 21.271l-3.34 3.34"></path>
<path fill="none" stroke="#e57c57" style="stroke: var(--color4, #e57c57)" stroke-linejoin="miter" stroke-linecap="round" stroke-miterlimit="4" stroke-width="0.6311" d="M44.807 14.329l-3.34 3.34"></path>
<path fill="none" stroke="#e57c57" style="stroke: var(--color4, #e57c57)" stroke-linejoin="miter" stroke-linecap="round" stroke-miterlimit="4" stroke-width="0.6311" d="M44.807 7.387l-3.34 3.34"></path>
<path fill="none" stroke="#e49128" style="stroke: var(--color5, #e49128)" stroke-linejoin="miter" stroke-linecap="round" stroke-miterlimit="4" stroke-width="0.6311" d="M44.807 0.444l-3.34 3.34"></path>
<path fill="none" stroke="#e57c57" style="stroke: var(--color4, #e57c57)" stroke-linejoin="miter" stroke-linecap="round" stroke-miterlimit="4" stroke-width="0.6311" d="M53.011 28.213l-3.34 3.34"></path>
<path fill="none" stroke="#e57c57" style="stroke: var(--color4, #e57c57)" stroke-linejoin="miter" stroke-linecap="round" stroke-miterlimit="4" stroke-width="0.6311" d="M53.011 21.271l-3.34 3.34"></path>
<path fill="none" stroke="#e57c57" style="stroke: var(--color4, #e57c57)" stroke-linejoin="miter" stroke-linecap="round" stroke-miterlimit="4" stroke-width="0.6311" d="M53.011 14.329l-3.34 3.34"></path>
<path fill="none" stroke="#e49128" style="stroke: var(--color5, #e49128)" stroke-linejoin="miter" stroke-linecap="round" stroke-miterlimit="4" stroke-width="0.6311" d="M53.011 7.387l-3.34 3.34"></path>
<path fill="none" stroke="#e7648b" style="stroke: var(--color6, #e7648b)" stroke-linejoin="miter" stroke-linecap="round" stroke-miterlimit="4" stroke-width="0.6311" d="M53.011 0.444l-3.34 3.34"></path>
</symbol>
<symbol id="icon-slider_center" viewBox="0 0 27 32">
<path d="M13.392 1.28c-6.087 0-11.039 4.634-11.039 10.33 0 7.069 9.879 17.447 10.299 17.885 0.395 0.412 1.085 0.411 1.479 0 0.421-0.438 10.299-10.816 10.299-17.885-0-5.696-4.952-10.33-11.039-10.33zM13.392 16.808c-3.062 0-5.554-2.332-5.554-5.197s2.491-5.197 5.554-5.197c3.062 0 5.554 2.332 5.554 5.197s-2.491 5.197-5.554 5.197z"></path>
<path d="M21.123 20.52c-1.815 0.426-5.257 1.187-5.65 1.090-0.404-0.1-2.565-1.084-3.595-1.564l-3.406-2.064-3.406-0.813-1.605-0.839c-0.68-1.637-1.107-3.249-1.107-4.719 0-5.696 4.952-10.33 11.039-10.33s11.038 4.634 11.039 10.33c0 2.731-1.474 5.955-3.308 8.909zM7.838 11.61c0 2.866 2.491 5.197 5.554 5.197s5.554-2.332 5.554-5.197-2.491-5.197-5.554-5.197c-3.062 0-5.554 2.331-5.554 5.197z"></path>
<path d="M21.658 19.632c-6.117 2.715-8.886 0.342-11.545-1.937-1.997-1.711-3.932-3.37-7.177-2.783 0.363 1.13 0.876 2.29 1.478 3.436 2.328-0.281 4.146 0.817 6.010 1.943 2.739 1.655 5.58 3.371 10.292 0.871 0.324-0.502 0.64-1.014 0.942-1.531z"></path>
</symbol>
<symbol id="icon-telegram_logo" viewBox="0 0 32 32">
<path fill="#039be5" style="fill: var(--color7, #039be5)" d="M16 32c8.837 0 16-7.163 16-16s-7.163-16-16-16c-8.837 0-16 7.163-16 16s7.163 16 16 16z"></path>
<path fill="#fff" style="fill: var(--color1, #fff)" d="M7.543 15.689l14.735-5.773c0.684-0.251 1.281 0.17 1.060 1.22l0.001-0.001-2.509 12.010c-0.186 0.851-0.684 1.058-1.381 0.657l-3.821-2.861-1.843 1.804c-0.204 0.207-0.376 0.382-0.77 0.382l0.271-3.951 7.081-6.5c0.308-0.276-0.069-0.431-0.475-0.157l-8.751 5.598-3.772-1.196c-0.819-0.264-0.837-0.832 0.173-1.233v0z"></path>
</symbol>
</defs>
</svg>
