<svg width="154" height="92" viewBox="0 0 154 92" fill="none" xmlns="http://www.w3.org/2000/svg">
<line x1="143.165" y1="81.0798" x2="153.081" y2="90.9957" stroke="#E57C57" stroke-width="1.42" stroke-linecap="round"/>
<line x1="143.165" y1="61.0599" x2="153.081" y2="70.9758" stroke="#E49128" stroke-width="1.42" stroke-linecap="round"/>
<line x1="143.165" y1="41.0398" x2="153.081" y2="50.9557" stroke="#E57C57" stroke-width="1.42" stroke-linecap="round"/>
<line x1="143.165" y1="21.0198" x2="153.081" y2="30.9357" stroke="#E57C57" stroke-width="1.42" stroke-linecap="round"/>
<line x1="143.165" y1="0.999878" x2="153.081" y2="10.9158" stroke="#E7648B" stroke-width="1.42" stroke-linecap="round"/>
<line x1="119.504" y1="81.0798" x2="129.42" y2="90.9957" stroke="#E7648B" stroke-width="1.42" stroke-linecap="round"/>
<line x1="119.504" y1="61.0599" x2="129.42" y2="70.9758" stroke="#E57C57" stroke-width="1.42" stroke-linecap="round"/>
<line x1="119.504" y1="41.0398" x2="129.42" y2="50.9557" stroke="#E57C57" stroke-width="1.42" stroke-linecap="round"/>
<line x1="119.504" y1="21.0198" x2="129.42" y2="30.9357" stroke="#E57C57" stroke-width="1.42" stroke-linecap="round"/>
<line x1="119.504" y1="0.999878" x2="129.42" y2="10.9158" stroke="#E57C57" stroke-width="1.42" stroke-linecap="round"/>
<line x1="95.8439" y1="81.0798" x2="105.76" y2="90.9957" stroke="#E49128" stroke-width="1.42" stroke-linecap="round"/>
<line x1="95.8439" y1="61.0599" x2="105.76" y2="70.9758" stroke="#E7648B" stroke-width="1.42" stroke-linecap="round"/>
<line x1="95.8439" y1="41.0398" x2="105.76" y2="50.9557" stroke="#E57C57" stroke-width="1.42" stroke-linecap="round"/>
<line x1="95.8439" y1="21.0198" x2="105.76" y2="30.9357" stroke="#E49128" stroke-width="1.42" stroke-linecap="round"/>
<line x1="95.8439" y1="0.999878" x2="105.76" y2="10.9158" stroke="#E57C57" stroke-width="1.42" stroke-linecap="round"/>
<line x1="72.1843" y1="81.0798" x2="82.1002" y2="90.9957" stroke="#E57C57" stroke-width="1.42" stroke-linecap="round"/>
<line x1="72.1843" y1="61.0599" x2="82.1002" y2="70.9758" stroke="#E57C57" stroke-width="1.42" stroke-linecap="round"/>
<line x1="72.1843" y1="41.0398" x2="82.1002" y2="50.9557" stroke="#E7648B" stroke-width="1.42" stroke-linecap="round"/>
<line x1="72.1843" y1="21.0198" x2="82.1002" y2="30.9357" stroke="#E57C57" stroke-width="1.42" stroke-linecap="round"/>
<line x1="72.1843" y1="0.999878" x2="82.1002" y2="10.9158" stroke="#E57C57" stroke-width="1.42" stroke-linecap="round"/>
<line x1="48.5241" y1="81.0798" x2="58.44" y2="90.9957" stroke="#E57C57" stroke-width="1.42" stroke-linecap="round"/>
<line x1="48.5241" y1="61.0599" x2="58.44" y2="70.9758" stroke="#E57C57" stroke-width="1.42" stroke-linecap="round"/>
<line x1="48.5241" y1="41.0398" x2="58.44" y2="50.9557" stroke="#E7648B" stroke-width="1.42" stroke-linecap="round"/>
<line x1="48.5241" y1="21.0198" x2="58.44" y2="30.9357" stroke="#E57C57" stroke-width="1.42" stroke-linecap="round"/>
<line x1="48.5241" y1="0.999878" x2="58.44" y2="10.9158" stroke="#E57C57" stroke-width="1.42" stroke-linecap="round"/>
<line x1="24.8644" y1="81.0798" x2="34.7804" y2="90.9957" stroke="#E7648B" stroke-width="1.42" stroke-linecap="round"/>
<line x1="24.8644" y1="61.0599" x2="34.7804" y2="70.9758" stroke="#E49128" stroke-width="1.42" stroke-linecap="round"/>
<line x1="24.8644" y1="41.0398" x2="34.7804" y2="50.9557" stroke="#E57C57" stroke-width="1.42" stroke-linecap="round"/>
<line x1="24.8644" y1="21.0198" x2="34.7804" y2="30.9357" stroke="#E57C57" stroke-width="1.42" stroke-linecap="round"/>
<line x1="24.8644" y1="0.999878" x2="34.7804" y2="10.9158" stroke="#E49128" stroke-width="1.42" stroke-linecap="round"/>
<line x1="1.20429" y1="81.0798" x2="11.1202" y2="90.9957" stroke="#E57C57" stroke-width="1.42" stroke-linecap="round"/>
<line x1="1.20429" y1="61.0599" x2="11.1202" y2="70.9758" stroke="#E57C57" stroke-width="1.42" stroke-linecap="round"/>
<line x1="1.20429" y1="41.0398" x2="11.1202" y2="50.9557" stroke="#E57C57" stroke-width="1.42" stroke-linecap="round"/>
<line x1="1.20429" y1="21.0198" x2="11.1202" y2="30.9357" stroke="#E49128" stroke-width="1.42" stroke-linecap="round"/>
<line x1="1.20429" y1="0.999939" x2="11.1202" y2="10.9159" stroke="#E7648B" stroke-width="1.42" stroke-linecap="round"/>
</svg>
