<svg width="121" height="72" viewBox="0 0 121 72" fill="none" xmlns="http://www.w3.org/2000/svg">
<line x1="0.71" y1="-0.71" x2="11.3391" y2="-0.71" transform="matrix(-0.707107 0.707107 0.707107 0.707107 9.52002 63.4799)" stroke="#E57C57" stroke-width="1.42" stroke-linecap="round"/>
<line x1="0.71" y1="-0.71" x2="11.3391" y2="-0.71" transform="matrix(-0.707107 0.707107 0.707107 0.707107 9.52002 47.8599)" stroke="#E49128" stroke-opacity="0.5" stroke-width="1.42" stroke-linecap="round"/>
<line x1="0.71" y1="-0.71" x2="11.3391" y2="-0.71" transform="matrix(-0.707107 0.707107 0.707107 0.707107 9.52002 32.2399)" stroke="#E57C57" stroke-width="1.42" stroke-linecap="round"/>
<line x1="0.71" y1="-0.71" x2="11.3391" y2="-0.71" transform="matrix(-0.707107 0.707107 0.707107 0.707107 9.52002 16.6199)" stroke="#E57C57" stroke-width="1.42" stroke-linecap="round"/>
<line x1="0.71" y1="-0.71" x2="11.3391" y2="-0.71" transform="matrix(-0.707107 0.707107 0.707107 0.707107 9.52002 0.999939)" stroke="#E7648B" stroke-opacity="0.2" stroke-width="1.42" stroke-linecap="round"/>
<line x1="0.71" y1="-0.71" x2="11.3391" y2="-0.71" transform="matrix(-0.707107 0.707107 0.707107 0.707107 27.9805 63.4799)" stroke="#E7648B" stroke-opacity="0.2" stroke-width="1.42" stroke-linecap="round"/>
<line x1="0.71" y1="-0.71" x2="11.3391" y2="-0.71" transform="matrix(-0.707107 0.707107 0.707107 0.707107 27.9805 47.8599)" stroke="#E57C57" stroke-width="1.42" stroke-linecap="round"/>
<line x1="0.71" y1="-0.71" x2="11.3391" y2="-0.71" transform="matrix(-0.707107 0.707107 0.707107 0.707107 27.9805 32.2399)" stroke="#E57C57" stroke-width="1.42" stroke-linecap="round"/>
<line x1="0.71" y1="-0.71" x2="11.3391" y2="-0.71" transform="matrix(-0.707107 0.707107 0.707107 0.707107 27.9805 16.6199)" stroke="#E57C57" stroke-width="1.42" stroke-linecap="round"/>
<line x1="0.71" y1="-0.71" x2="11.3391" y2="-0.71" transform="matrix(-0.707107 0.707107 0.707107 0.707107 27.9805 0.999939)" stroke="#E57C57" stroke-width="1.42" stroke-linecap="round"/>
<line x1="0.71" y1="-0.71" x2="11.3391" y2="-0.71" transform="matrix(-0.707107 0.707107 0.707107 0.707107 46.4404 63.4799)" stroke="#E49128" stroke-opacity="0.5" stroke-width="1.42" stroke-linecap="round"/>
<line x1="0.71" y1="-0.71" x2="11.3391" y2="-0.71" transform="matrix(-0.707107 0.707107 0.707107 0.707107 46.4404 47.8599)" stroke="#E7648B" stroke-opacity="0.2" stroke-width="1.42" stroke-linecap="round"/>
<line x1="0.71" y1="-0.71" x2="11.3391" y2="-0.71" transform="matrix(-0.707107 0.707107 0.707107 0.707107 46.4404 32.2399)" stroke="#E57C57" stroke-width="1.42" stroke-linecap="round"/>
<line x1="0.71" y1="-0.71" x2="11.3391" y2="-0.71" transform="matrix(-0.707107 0.707107 0.707107 0.707107 46.4404 16.6199)" stroke="#E49128" stroke-opacity="0.5" stroke-width="1.42" stroke-linecap="round"/>
<line x1="0.71" y1="-0.71" x2="11.3391" y2="-0.71" transform="matrix(-0.707107 0.707107 0.707107 0.707107 46.4404 0.999939)" stroke="#E57C57" stroke-width="1.42" stroke-linecap="round"/>
<line x1="0.71" y1="-0.71" x2="11.3391" y2="-0.71" transform="matrix(-0.707107 0.707107 0.707107 0.707107 64.9004 63.4799)" stroke="#E57C57" stroke-width="1.42" stroke-linecap="round"/>
<line x1="0.71" y1="-0.71" x2="11.3391" y2="-0.71" transform="matrix(-0.707107 0.707107 0.707107 0.707107 64.9004 47.8599)" stroke="#E57C57" stroke-width="1.42" stroke-linecap="round"/>
<line x1="0.71" y1="-0.71" x2="11.3391" y2="-0.71" transform="matrix(-0.707107 0.707107 0.707107 0.707107 64.9004 32.2399)" stroke="#E7648B" stroke-opacity="0.2" stroke-width="1.42" stroke-linecap="round"/>
<line x1="0.71" y1="-0.71" x2="11.3391" y2="-0.71" transform="matrix(-0.707107 0.707107 0.707107 0.707107 64.9004 16.6199)" stroke="#E57C57" stroke-width="1.42" stroke-linecap="round"/>
<line x1="0.71" y1="-0.71" x2="11.3391" y2="-0.71" transform="matrix(-0.707107 0.707107 0.707107 0.707107 64.9004 0.999939)" stroke="#E57C57" stroke-width="1.42" stroke-linecap="round"/>
<line x1="0.71" y1="-0.71" x2="11.3391" y2="-0.71" transform="matrix(-0.707107 0.707107 0.707107 0.707107 83.3604 63.4799)" stroke="#E57C57" stroke-width="1.42" stroke-linecap="round"/>
<line x1="0.71" y1="-0.71" x2="11.3391" y2="-0.71" transform="matrix(-0.707107 0.707107 0.707107 0.707107 83.3604 47.8599)" stroke="#E57C57" stroke-width="1.42" stroke-linecap="round"/>
<line x1="0.71" y1="-0.71" x2="11.3391" y2="-0.71" transform="matrix(-0.707107 0.707107 0.707107 0.707107 83.3604 32.2399)" stroke="#E7648B" stroke-opacity="0.2" stroke-width="1.42" stroke-linecap="round"/>
<line x1="0.71" y1="-0.71" x2="11.3391" y2="-0.71" transform="matrix(-0.707107 0.707107 0.707107 0.707107 83.3604 16.6199)" stroke="#E57C57" stroke-width="1.42" stroke-linecap="round"/>
<line x1="0.71" y1="-0.71" x2="11.3391" y2="-0.71" transform="matrix(-0.707107 0.707107 0.707107 0.707107 83.3604 0.999939)" stroke="#E57C57" stroke-width="1.42" stroke-linecap="round"/>
<line x1="0.71" y1="-0.71" x2="11.3391" y2="-0.71" transform="matrix(-0.707107 0.707107 0.707107 0.707107 101.82 63.4799)" stroke="#E7648B" stroke-opacity="0.2" stroke-width="1.42" stroke-linecap="round"/>
<line x1="0.71" y1="-0.71" x2="11.3391" y2="-0.71" transform="matrix(-0.707107 0.707107 0.707107 0.707107 101.82 47.8599)" stroke="#E49128" stroke-opacity="0.5" stroke-width="1.42" stroke-linecap="round"/>
<line x1="0.71" y1="-0.71" x2="11.3391" y2="-0.71" transform="matrix(-0.707107 0.707107 0.707107 0.707107 101.82 32.2399)" stroke="#E57C57" stroke-width="1.42" stroke-linecap="round"/>
<line x1="0.71" y1="-0.71" x2="11.3391" y2="-0.71" transform="matrix(-0.707107 0.707107 0.707107 0.707107 101.82 16.6199)" stroke="#E57C57" stroke-width="1.42" stroke-linecap="round"/>
<line x1="0.71" y1="-0.71" x2="11.3391" y2="-0.71" transform="matrix(-0.707107 0.707107 0.707107 0.707107 101.82 0.999939)" stroke="#E49128" stroke-opacity="0.5" stroke-width="1.42" stroke-linecap="round"/>
<line x1="0.71" y1="-0.71" x2="11.3391" y2="-0.71" transform="matrix(-0.707107 0.707107 0.707107 0.707107 120.28 63.4799)" stroke="#E57C57" stroke-width="1.42" stroke-linecap="round"/>
<line x1="0.71" y1="-0.71" x2="11.3391" y2="-0.71" transform="matrix(-0.707107 0.707107 0.707107 0.707107 120.28 47.8599)" stroke="#E57C57" stroke-width="1.42" stroke-linecap="round"/>
<line x1="0.71" y1="-0.71" x2="11.3391" y2="-0.71" transform="matrix(-0.707107 0.707107 0.707107 0.707107 120.28 32.2399)" stroke="#E57C57" stroke-width="1.42" stroke-linecap="round"/>
<line x1="0.71" y1="-0.71" x2="11.3391" y2="-0.71" transform="matrix(-0.707107 0.707107 0.707107 0.707107 120.28 16.6199)" stroke="#E49128" stroke-opacity="0.5" stroke-width="1.42" stroke-linecap="round"/>
<line x1="0.71" y1="-0.71" x2="11.3391" y2="-0.71" transform="matrix(-0.707107 0.707107 0.707107 0.707107 120.28 1)" stroke="#E7648B" stroke-opacity="0.2" stroke-width="1.42" stroke-linecap="round"/>
</svg>
